<svg viewBox="0 0 238.35 69.36" fill="none" xmlns="http://www.w3.org/2000/svg">
  <!-- Główny kształt (Organiczny, zaokrąglony) -->
  <path d="M10 5C10 2.23858 12.2386 0 15 0H223.35C226.111 0 228.35 2.23858 228.35 5V64.36C228.35 67.1214 226.111 69.36 223.35 69.36H15C12.2386 69.36 10 67.1214 10 64.36V5Z" fill="#0b2822" />
  
  <!-- Ozdobne pnącza w tle -->
  <path d="M0 34.68C30 20 60 45 90 34.68S150 15 180 34.68 238.35 50 238.35 34.68" stroke="#1b4d3e" stroke-width="8" opacity="0.3"/>
  <path d="M0 45C40 35 80 55 120 45S200 25 238.35 45" stroke="#2d5a2d" stroke-width="4" opacity="0.2"/>

  <!-- Listki dekoracyjne w narożnikach -->
  <g opacity="0.6">
    <!-- Lewy górny -->
    <path d="M5 5C15 5 20 15 15 25C10 20 5 15 5 5Z" fill="#88c988"/>
    <path d="M2 10C8 10 12 18 10 24C6 20 2 16 2 10Z" fill="#5D4037" opacity="0.4"/>
    
    <!-- Prawy dolny -->
    <path d="M233.35 64.36C223.35 64.36 218.35 54.36 223.35 44.36C228.35 49.36 233.35 54.36 233.35 64.36Z" fill="#88c988"/>
    <path d="M236.35 59.36C230.35 59.36 226.35 51.36 228.35 45.36C232.35 49.36 236.35 53.36 236.35 59.36Z" fill="#5D4037" opacity="0.4"/>
  </g>

  <!-- Subtelny blask i cieniowanie -->
  <rect x="10" y="0" width="218.35" height="4" fill="white" opacity="0.05"/>
  <rect x="10" y="65.36" width="218.35" height="4" fill="black" opacity="0.1"/>
  
  <!-- Kropki kontrolne (jeśli SHOW_DOTS) - tu tylko placeholder dla struktury -->
</svg>
