<?xml version="1.0" encoding="UTF-8" standalone="no"?>
<!-- Created with Inkscape (http://www.inkscape.org/) -->

<svg
   width="238.35097mm"
   height="69.361404mm"
   viewBox="0 0 238.35097 69.361404"
   version="1.1"
   id="svg1"
   xmlns:xlink="http://www.w3.org/1999/xlink"
   xmlns="http://www.w3.org/2000/svg"
   xmlns:svg="http://www.w3.org/2000/svg">
  <defs
     id="defs1">
    <marker
       style="overflow:visible"
       id="Club"
       refX="0"
       refY="0"
       orient="auto-start-reverse"
       markerWidth="1"
       markerHeight="1"
       viewBox="0 0 1 1"
       preserveAspectRatio="xMidYMid">
      <path
         transform="scale(-0.5)"
         style="fill:context-stroke;fill-rule:evenodd;stroke:context-stroke"
         d="m -1.5971367,-7.0977635 c -1.8892507,0 -3.426382,1.5371314 -3.426382,3.4263822 0,0.6566798 0.2383531,1.2269257 0.5594092,1.7481542 -0.038751,0.032111 -0.079672,0.058463 -0.1165436,0.093235 -0.6224234,-0.8549928 -1.5893983,-1.4451409 -2.7271199,-1.4451409 -1.8892515,-1e-7 -3.426382,1.5371314 -3.426382,3.42638214 0,1.88925076 1.5371305,3.42638216 3.426382,3.42638216 0.9934462,0 1.868619,-0.4420611 2.4940326,-1.1188187 -0.124687,0.3548915 -0.2097783,0.7214874 -0.2097783,1.1188187 0,1.8892506 1.5371313,3.4263822 3.426382,3.4263822 1.88925064,0 3.4263821,-1.5371316 3.4263821,-3.4263822 0,-0.7933959 -0.3155586,-1.4938285 -0.7691878,-2.0744763 C 2.4152718,1.7663868 3.7718375,2.2973711 4.7661444,3.8340272 4.0279463,3.0958289 3.5540908,1.7534117 3.5540908,-0.05852936 l -0.6293354,-0.04661745 0.5827179,-0.0233087 c 0,-1.81194109 0.4505466,-3.15435829 1.188745,-3.89255659 -0.9590906,1.4822308 -2.2571634,2.0263625 -3.5662345,2.3075635 0.4041964,-0.5619092 0.6992616,-1.213407 0.6992616,-1.9579327 0,-1.8892506 -1.53713146,-3.4263822 -3.4263821,-3.4263822 z"
         id="path30" />
    </marker>
    <marker
       style="overflow:visible"
       id="SemiCircleFilled"
       refX="0"
       refY="0"
       orient="auto"
       markerWidth="1"
       markerHeight="1"
       viewBox="0 0 1 1"
       preserveAspectRatio="xMidYMid">
      <path
         style="fill:context-stroke;fill-rule:evenodd;stroke:context-stroke;stroke-width:0.6pt"
         d="m -0.22470421,-0.02741555 c 0,1.65599995 1.34400001,2.99999995 3.00000001,2.99999995 v -6 c -1.656,0 -3.00000001,1.344 -3.00000001,3.00000005 z"
         id="path25" />
    </marker>
    <linearGradient
       id="swatch9">
      <stop
         style="stop-color:#87de87;stop-opacity:1;"
         offset="0"
         id="stop9" />
    </linearGradient>
    <linearGradient
       xlink:href="#swatch9"
       id="linearGradient9"
       x1="5"
       y1="69.340004"
       x2="205"
       y2="69.340004"
       gradientUnits="userSpaceOnUse" />
  </defs>
  <g
     id="layer1"
     style="display:inline"
     transform="translate(14.124503,-36.572374)">
    <path
       style="opacity:1;fill:#0b2822;fill-opacity:1;stroke:none;stroke-width:1;stroke-linecap:round;stroke-linejoin:miter;stroke-dasharray:none;stroke-opacity:1;paint-order:stroke markers fill"
       d="m 45.645011,84.637307 15.153405,-7.022308 58.396044,0.369593 41.94906,0.369597 7.7615,7.207107 -25.50207,5.728724 -21.69426,3.768262 -34.698064,0.84055 -25.657818,-7.195977 z"
       id="path13" />
    <ellipse
       style="display:none;opacity:0.725552;fill:#e5ffd5;fill-opacity:1;stroke:none;stroke-width:1;stroke-linecap:round;stroke-linejoin:miter;stroke-dasharray:none;stroke-opacity:1;paint-order:stroke markers fill"
       id="path9"
       cx="105"
       cy="69.798409"
       rx="100"
       ry="38.857487" />
    <path
       style="fill:url(#linearGradient9);fill-opacity:1;stroke:#3b4a2e;stroke-width:1;stroke-linecap:round;stroke-linejoin:miter;stroke-dasharray:none;stroke-opacity:1;marker-mid:url(#SemiCircleFilled);marker-end:url(#Club);paint-order:stroke markers fill"
       id="rect2"
       width="200"
       height="28.811636"
       x="5"
       y="54.934185"
       ry="0"
       rx="0"
       d="m 15,54.934185 180,0 a 10,10 45 0 1 10,10 l 0,18.811636 H 5 V 64.934185 a 10,10 135 0 1 10,-10 z" />
  </g>
  <g
     id="layer3"
     transform="translate(14.124503,-36.572374)">
    <rect
       style="fill:#338000;fill-opacity:1;stroke:none;stroke-width:1;stroke-linecap:butt;stroke-linejoin:miter;stroke-dasharray:none;stroke-opacity:1;paint-order:markers fill stroke"
       id="rect9"
       width="200"
       height="5.4908309"
       x="5"
       y="78.254982" />
  </g>
  <g
     id="layer4"
     transform="translate(14.124503,-36.572374)">
    <path
       style="opacity:1;fill:#0b280b;fill-opacity:1;stroke:none;stroke-width:1;stroke-linecap:round;stroke-linejoin:miter;stroke-dasharray:none;stroke-opacity:1;paint-order:stroke markers fill"
       d="M 41.616836,79.198101 15.637842,83.485896 8.0711441,77.180315 6.0533581,60.533581 8.8278138,52.462437 18.916744,44.89574 l 11.097824,4.035571 2.270009,4.54002 -2.522233,7.06225 6.557803,-6.053357 -0.756668,-8.071146 -7.314475,-7.818919 -10.593376,-2.017787 -11.3500466,3.783349 -12.6111628,7.314475 -7.3144746,14.1245 -0.504446,15.637843 3.278902,14.376726 9.3322605,4.792241 14.6289485,4.792244 36.067926,4.54002 L 72.89252,100.13263 95.088166,93.827051 44.89574,81.720334 Z"
       id="path11" />
    <path
       style="opacity:1;fill:#0b280b;fill-opacity:1;stroke:none;stroke-width:1;stroke-linecap:round;stroke-linejoin:miter;stroke-dasharray:none;stroke-opacity:1;paint-order:stroke markers fill"
       d="m 168.48514,79.198101 25.97899,4.287795 7.5667,-6.305581 2.01779,-16.646734 -2.77446,-8.071144 -10.08893,-7.566697 -11.09782,4.035571 -2.27001,4.54002 2.52223,7.06225 -6.5578,-6.053357 0.75667,-8.071146 7.31447,-7.818919 10.59338,-2.017787 11.35004,3.783349 12.61117,7.314475 7.31447,14.1245 0.50445,15.637843 -3.27891,14.376726 -9.33226,4.792241 -14.62895,4.792244 -36.06792,4.54002 -23.70898,-5.80114 -22.19565,-6.305579 50.19243,-12.106717 z"
       id="path12" />
  </g>
</svg>
